<svg width="48" height="61" viewBox="0 0 48 61" fill="none" xmlns="http://www.w3.org/2000/svg">
<g clip-path="url(#clip0)">
<path d="M24.0395 32.7707C37.297 32.7707 48.0444 28.0831 48.0444 22.3008C48.0444 16.5185 37.297 11.8309 24.0395 11.8309C10.7819 11.8309 0.0345459 16.5185 0.0345459 22.3008C0.0345459 28.0831 10.7819 32.7707 24.0395 32.7707Z" fill="#030000"/>
<path d="M35.2238 1.82373C35.2238 1.82373 31.6565 0 24.1394 0C16.6223 0 12.8551 1.82373 12.8551 1.82373C10.6784 2.72577 8.4549 3.78736 8.4549 6.20018V14.5898C8.45847 15.7494 8.92322 16.8605 9.74764 17.6805C10.5721 18.5005 11.6892 18.9627 12.8551 18.9663H35.2238C36.3898 18.9627 37.5069 18.5005 38.3313 17.6805C39.1557 16.8605 39.6205 15.7494 39.6241 14.5898V6.20018C39.6253 3.7935 38.2026 3.2805 35.2238 1.82373Z" fill="#030000"/>
<path d="M24.0395 11.4136C34.1158 11.4136 39.6253 14.332 39.6253 14.332V10.8662C39.6253 8.45829 33.579 6.85425 24.0395 6.85425C14.4999 6.85425 8.45367 8.45952 8.45367 10.8662V14.3308C8.45367 14.3308 13.962 11.4136 24.0395 11.4136Z" fill="#B92221"/>
<path d="M47.024 37.8847C47.024 50.5109 36.733 60.6653 24.0395 60.7451C11.4373 60.8249 1.14139 50.5857 1.05502 37.8847C1.03256 34.7451 1.66925 31.6354 2.92435 28.7546C4.17944 25.8737 6.02531 23.2852 8.34386 21.1545C12.4603 17.35 17.9858 15.9374 24.0395 15.9374C30.0932 15.9374 35.6126 17.3561 39.7191 21.168C42.0273 23.3048 43.8674 25.8923 45.1243 28.7687C46.3812 31.645 47.0279 34.7484 47.024 37.8847Z" fill="white" stroke="#030000" stroke-miterlimit="10"/>
<path d="M35.7088 26.6797C35.7088 26.5139 35.6425 26.3549 35.5246 26.2376C35.4067 26.1203 35.2468 26.0544 35.0801 26.0544C34.9133 26.0544 34.7534 26.1203 34.6355 26.2376C34.5176 26.3549 34.4514 26.5139 34.4514 26.6797C34.4514 29.4266 33.3543 32.0609 31.4015 34.0032C29.4486 35.9455 26.8 37.0367 24.0382 37.0367C21.2765 37.0367 18.6279 35.9455 16.675 34.0032C14.7222 32.0609 13.6251 29.4266 13.6251 26.6797C13.6251 26.5139 13.5588 26.3549 13.4409 26.2376C13.323 26.1203 13.1631 26.0544 12.9964 26.0544C12.8297 26.0544 12.6697 26.1203 12.5518 26.2376C12.4339 26.3549 12.3677 26.5139 12.3677 26.6797C12.3677 29.7581 13.5972 32.7104 15.7857 34.8871C17.9743 37.0638 20.9426 38.2867 24.0376 38.2867C27.1327 38.2867 30.101 37.0638 32.2895 34.8871C34.478 32.7104 35.7075 29.7581 35.7075 26.6797H35.7088Z" fill="#030000"/>
<path d="M19.2197 22.3793L16.1978 23.1844C16.4125 23.9819 16.9369 24.6618 17.6557 25.0747C18.3744 25.4876 19.2287 25.5996 20.0304 25.3861C20.8322 25.1726 21.5159 24.651 21.931 23.9362C22.3462 23.2213 22.4588 22.3717 22.2441 21.5742L19.2197 22.3793Z" fill="#030000"/>
<path d="M28.8592 22.3793L25.8373 21.5742C25.6226 22.3717 25.7353 23.2213 26.1504 23.9362C26.5655 24.651 27.2492 25.1726 28.051 25.3861C28.8528 25.5996 29.707 25.4876 30.4258 25.0747C31.1445 24.6618 31.6689 23.9819 31.8836 23.1844L28.8592 22.3793Z" fill="#030000"/>
<path d="M17.6453 26.8184C17.9908 25.7777 22.7463 26.5214 24.137 26.6846C25.1118 26.7988 25.6177 27.7892 25.3129 28.9134C25.1118 29.6559 23.921 30.2069 23.1782 29.8829C23.1745 29.8817 17.2677 27.9414 17.6453 26.8184Z" fill="#EA5B18"/>
</g>
<defs>
<clipPath id="clip0">
<rect width="48" height="60.75" fill="white"/>
</clipPath>
</defs>
</svg>
